<svg width="13" height="40" viewBox="0 0 13 40" fill="none" xmlns="http://www.w3.org/2000/svg">
<path d="M13 17.5953H11.5795V14.8192H10.6755V12.0821H9.25497V9.38416H8.00662V6.72532H6.80132V3.98827H5.46689V0H1.07616V4.49658H1.93709V7.31183H3.61589V10.0489H4.86424V12.7077H6.28477V15.4057H7.23179V18.1427H8.65232V20.3715H7.49007V23.0303H6.11258V25.8455H4.77815V28.5826H3.57285V31.2414H2.3245V33.9394H0.903974V36.6764H0V40H4.34768V37.263H5.2947V34.565H6.71523V31.9062H7.96358V29.1691H9.64239V26.3539H10.5033V23.695H11.8377V20.9189H13V17.5953Z" fill="black"/>
</svg>
