<svg width="13" height="40" viewBox="0 0 13 40" fill="none" xmlns="http://www.w3.org/2000/svg">
<path d="M2.12124e-06 22.4047L1.42053 22.4047L1.42053 25.1808L2.32451 25.1808L2.32451 27.9179L3.74503 27.9179L3.74503 30.6158L4.99338 30.6158L4.99338 33.2747L6.19868 33.2747L6.19868 36.0117L7.53311 36.0117L7.53311 40L11.9238 40L11.9238 35.5034L11.0629 35.5034L11.0629 32.6882L9.38411 32.6882L9.38411 29.9511L8.13576 29.9511L8.13576 27.2923L6.71523 27.2923L6.71523 24.5943L5.76821 24.5943L5.76821 21.8573L4.34768 21.8573L4.34768 19.6285L5.50993 19.6285L5.50993 16.9697L6.88742 16.9697L6.88742 14.1545L8.22185 14.1545L8.22185 11.4174L9.42715 11.4174L9.42715 8.75856L10.6755 8.75856L10.6755 6.06061L12.096 6.06061L12.096 3.32356L13 3.32356L13 0L8.65231 3.45247e-07L8.65231 2.73705L7.7053 2.73705L7.7053 5.435L6.28477 5.435L6.28477 8.09384L5.03642 8.09384L5.03642 10.8309L3.35762 10.8309L3.35762 13.6461L2.49669 13.6461L2.49669 16.305L1.16225 16.305L1.16225 19.0811L1.80137e-06 19.0811L2.12124e-06 22.4047Z" fill="black"/>
</svg>
