<svg width="7" height="19" viewBox="0 0 7 19" fill="none" xmlns="http://www.w3.org/2000/svg">
<path d="M6.71646 8.61053H6.02187L6.02187 7.36164H5.57985L5.57985 6.13035H4.88526L4.88526 4.91665H4.27485L4.27485 3.72053H3.6855L3.6855 2.48924H3.033L3.033 0.695068L0.886072 0.695068L0.886072 2.71791H1.30704L1.30704 3.98438L2.12792 3.98438L2.12792 5.21567H2.73833L2.73833 6.41179L3.43292 6.41179L3.43292 7.62549H3.89598L3.89598 8.85678H4.59058L4.59058 9.85941H4.02227L4.02227 11.0555H3.34873L3.34873 12.322H2.69623L2.69623 13.5533H2.10688L2.10688 14.7494H1.49647L1.49647 15.9631H0.801879L0.801879 17.1944H0.359864L0.359864 18.6895H2.48575L2.48575 17.4583H2.94881L2.94881 16.2445H3.6434L3.6434 15.0484H4.25381L4.25381 13.8171H5.07469L5.07469 12.5507H5.49566L5.49566 11.3546H6.14816L6.14816 10.1057L6.71646 10.1057L6.71646 8.61053Z" fill="white"/>
</svg>
