<svg width="18" height="9" viewBox="0 0 18 9" fill="none" xmlns="http://www.w3.org/2000/svg">
<path d="M7.91789 0.473755L7.91789 1.36902L6.66862 1.36902L6.66862 1.93873L5.43695 1.93873L5.43695 2.83399L4.22287 2.83399L4.22287 3.62073L3.02639 3.62073L3.02639 4.38035L1.79472 4.38035L1.79472 5.22135L-8.50636e-08 5.22135L-1.67448e-08 7.98852L2.02346 7.98852L2.02346 7.44594L3.29032 7.44594L3.29032 6.3879L4.52199 6.3879L4.52199 5.60116L5.71847 5.60116L5.71847 4.7059L6.93255 4.7059L6.93255 4.10906L8.16422 4.10906L8.16422 3.2138L9.16715 3.2138L9.16715 3.94628L10.3636 3.94628L10.3636 4.81441L11.6305 4.81441L11.6305 5.65542L12.8622 5.65542L12.8622 6.41503L14.0586 6.41503L14.0586 7.20177L15.2727 7.20177L15.2727 8.09704L16.5044 8.09704L16.5044 8.66675L18 8.66675L18 5.92671L16.7683 5.92671L16.7683 5.32987L15.5542 5.32987L15.5542 4.4346L14.3578 4.4346L14.3578 3.64786L13.1261 3.64786L13.1261 2.58983L11.8592 2.58983L11.8592 2.04724L10.6628 2.04724L10.6628 1.20624L9.41349 1.20624L9.41349 0.473755L7.91789 0.473755Z" fill="white"/>
</svg>
