<svg width="18" height="6" viewBox="0 0 18 6" fill="none" xmlns="http://www.w3.org/2000/svg">
<path d="M10.0821 6L10.0821 5.34437L11.3314 5.34437L11.3314 4.92715L12.5631 4.92715L12.5631 4.27152L13.7771 4.27152L13.7771 3.69536L14.9736 3.69536L14.9736 3.13907L16.2053 3.13907L16.2053 2.52318L18 2.52318L18 0.496689L15.9765 0.496689L15.9765 0.89404L14.7097 0.89404L14.7097 1.66887L13.478 1.66887L13.478 2.24503L12.2815 2.24503L12.2815 2.90066L11.0674 2.90066L11.0674 3.33775L9.83578 3.33775L9.83578 3.99338L8.83284 3.99338L8.83284 3.45695L7.63636 3.45695L7.63636 2.82119L6.3695 2.82119L6.3695 2.2053L5.13783 2.2053L5.13783 1.64901L3.94135 1.64901L3.94135 1.07285L2.72727 1.07285L2.72727 0.417221L1.4956 0.417221L1.4956 2.35062e-06L-1.90735e-06 2.56363e-06L-1.66428e-06 2.00662L1.23167 2.00662L1.23167 2.44371L2.44575 2.44371L2.44575 3.09934L3.64223 3.09934L3.64223 3.6755L4.8739 3.6755L4.8739 4.45033L6.14076 4.45033L6.14076 4.84768L7.33724 4.84768L7.33724 5.46358L8.58651 5.46358L8.58651 6L10.0821 6Z" fill="black"/>
</svg>
