<svg width="20" height="30" viewBox="0 0 20 30" fill="none" xmlns="http://www.w3.org/2000/svg">
<path d="M18.325 26.609V21.5027H16.5494V17.992H15.0084V15.2793H12.4623V12.7261H15.0084V9.21542H16.5494V5.70479H18.325V0H14.9079V4.62766H13.1323V8.1383H11.5913V11.7686H8.47571V8.1383H6.93467V4.62766H5.15913V0H1.74204V5.70479H3.51759V9.21542H5.05863V12.7261H7.37018V15.2793H4.99162V17.992H3.45059V21.5027H1.67504V26.609H0V30H5.09213V22.5798H6.86767V19.0691H8.40871V15.9574H11.5913V19.0691H13.1323V22.5798H14.9079V30H20V26.609H18.325Z" fill="black"/>
</svg>
