<svg width="39" height="39" viewBox="0 0 39 39" fill="none" xmlns="http://www.w3.org/2000/svg">
<rect width="39" height="39" fill="#ACACAC"/>
<path d="M8.12109 22.0801H12.1641V23H6.99023V14.4688H8.12109V22.0801ZM12.9902 19.7715C12.9902 19.1504 13.1113 18.5918 13.3535 18.0957C13.5996 17.5996 13.9395 17.2168 14.373 16.9473C14.8105 16.6777 15.3086 16.543 15.8672 16.543C16.7305 16.543 17.4277 16.8418 17.959 17.4395C18.4941 18.0371 18.7617 18.832 18.7617 19.8242V19.9004C18.7617 20.5176 18.6426 21.0723 18.4043 21.5645C18.1699 22.0527 17.832 22.4336 17.3906 22.707C16.9531 22.9805 16.4492 23.1172 15.8789 23.1172C15.0195 23.1172 14.3223 22.8184 13.7871 22.2207C13.2559 21.623 12.9902 20.832 12.9902 19.8477V19.7715ZM14.0801 19.9004C14.0801 20.6035 14.2422 21.168 14.5664 21.5938C14.8945 22.0195 15.332 22.2324 15.8789 22.2324C16.4297 22.2324 16.8672 22.0176 17.1914 21.5879C17.5156 21.1543 17.6777 20.5488 17.6777 19.7715C17.6777 19.0762 17.5117 18.5137 17.1797 18.084C16.8516 17.6504 16.4141 17.4336 15.8672 17.4336C15.332 17.4336 14.9004 17.6465 14.5723 18.0723C14.2441 18.498 14.0801 19.1074 14.0801 19.9004ZM19.8633 19.7773C19.8633 18.7891 20.0918 18.0039 20.5488 17.4219C21.0059 16.8359 21.6113 16.543 22.3652 16.543C23.1387 16.543 23.7422 16.8164 24.1758 17.3633L24.2285 16.6602H25.2188V22.8477C25.2188 23.668 24.9746 24.3145 24.4863 24.7871C24.002 25.2598 23.3496 25.4961 22.5293 25.4961C22.0723 25.4961 21.625 25.3984 21.1875 25.2031C20.75 25.0078 20.416 24.7402 20.1855 24.4004L20.748 23.75C21.2129 24.3242 21.7812 24.6113 22.4531 24.6113C22.9805 24.6113 23.3906 24.4629 23.6836 24.166C23.9805 23.8691 24.1289 23.4512 24.1289 22.9121V22.3672C23.6953 22.8672 23.1035 23.1172 22.3535 23.1172C21.6113 23.1172 21.0098 22.8184 20.5488 22.2207C20.0918 21.623 19.8633 20.8086 19.8633 19.7773ZM20.9531 19.9004C20.9531 20.6152 21.0996 21.1777 21.3926 21.5879C21.6855 21.9941 22.0957 22.1973 22.623 22.1973C23.3066 22.1973 23.8086 21.8867 24.1289 21.2656V18.3711C23.7969 17.7656 23.2988 17.4629 22.6348 17.4629C22.1074 17.4629 21.6953 17.668 21.3984 18.0781C21.1016 18.4883 20.9531 19.0957 20.9531 19.9004ZM26.5723 19.7715C26.5723 19.1504 26.6934 18.5918 26.9355 18.0957C27.1816 17.5996 27.5215 17.2168 27.9551 16.9473C28.3926 16.6777 28.8906 16.543 29.4492 16.543C30.3125 16.543 31.0098 16.8418 31.541 17.4395C32.0762 18.0371 32.3438 18.832 32.3438 19.8242V19.9004C32.3438 20.5176 32.2246 21.0723 31.9863 21.5645C31.752 22.0527 31.4141 22.4336 30.9727 22.707C30.5352 22.9805 30.0312 23.1172 29.4609 23.1172C28.6016 23.1172 27.9043 22.8184 27.3691 22.2207C26.8379 21.623 26.5723 20.832 26.5723 19.8477V19.7715ZM27.6621 19.9004C27.6621 20.6035 27.8242 21.168 28.1484 21.5938C28.4766 22.0195 28.9141 22.2324 29.4609 22.2324C30.0117 22.2324 30.4492 22.0176 30.7734 21.5879C31.0977 21.1543 31.2598 20.5488 31.2598 19.7715C31.2598 19.0762 31.0938 18.5137 30.7617 18.084C30.4336 17.6504 29.9961 17.4336 29.4492 17.4336C28.9141 17.4336 28.4824 17.6465 28.1543 18.0723C27.8262 18.498 27.6621 19.1074 27.6621 19.9004Z" fill="black"/>
</svg>
