<svg width="946" height="255" viewBox="0 0 946 255" fill="none" xmlns="http://www.w3.org/2000/svg">
<g clip-path="url(#clip0)">
<path fill-rule="evenodd" clip-rule="evenodd" d="M680.637 0V15.8548H643.097V118.2H624.785V15.8548H587.244V0H680.637ZM588.63 14.4682V1.38651H679.251V14.4682H641.71V116.814H626.171V14.4682H588.63ZM766.085 16.1626H708.543V48.1716H745.776V54.9433H757.777V70.798H739.158V64.0263H708.543V101.884H766.085V118.2H690.231V0H766.085V16.1626ZM764.699 103.27V116.814H691.617V1.38651H764.699V14.776H707.157V49.5581H744.39V56.3298H756.391V69.4115H740.544V62.6398H707.157V103.27H764.699ZM854.657 104.04V117.121H787.114V116.814H781.575V1.38651H797.114V104.04H854.657ZM798.501 102.653V0H780.189V118.2H785.728V118.508H856.043V102.653H798.501ZM946 16.1626H888.458V48.1716H925.691V54.9433H937.692V70.798H919.073V64.0263H888.458V101.884H946V118.2H870.147V0H946V16.1626ZM944.614 103.27V116.814H871.533V1.38651H944.614V14.776H887.072V49.5581H924.305V56.3298H936.306V69.4115H920.459V62.6398H887.072V103.27H944.614Z" fill="#EFC1FF"/>
<path d="M85.5494 173.43C85.5494 148.806 69.0869 137.417 40.0081 137.417H5.54443V252.844H21.0839V209.751H61.5479V199.44H75.7027V190.668H85.5494V173.43ZM58.4708 186.358V196.67H21.0839V150.499H37.7003C59.5478 150.499 70.01 157.271 70.01 173.277V186.358H58.4708Z" fill="#EFC1FF"/>
<path d="M179.188 239.763V232.221H172.879V224.218H166.571V215.908H158.879V202.826C174.11 198.824 182.419 189.129 182.419 169.121V156.501H172.572V147.729H158.417V137.417H102.413V252.844H117.953V205.134H136.877H141.647V220.371H149.34V228.989H155.648V237.3H161.956V245.303H168.725V252.844H185.957V239.763H179.188ZM134.569 192.053H117.953V150.499H155.34V160.81H166.879V169.737C166.879 189.282 156.417 192.053 134.569 192.053Z" fill="#EFC1FF"/>
<path d="M275.97 150.807V137.417H202.889V252.844H275.97V239.301H218.428V198.67H251.815V205.442H267.662V192.36H255.661V185.589H218.428V150.807H275.97Z" fill="#EFC1FF"/>
<path d="M331.925 182.818C319.309 177.432 308.386 172.507 308.386 165.12C308.386 154.808 317.001 148.96 330.541 148.96C341.618 148.96 350.696 155.27 354.85 166.505L367.466 159.579C361.62 144.343 347.157 135.878 330.541 135.878C307.616 135.878 292.846 148.344 292.846 164.812C292.846 181.433 310.386 189.898 327.002 196.824C341.618 202.98 355.312 209.136 355.312 220.217V236.377H370.389V218.524C370.389 199.286 349.465 190.206 331.925 182.818ZM311.001 226.835H295.308V247.612H306.385V254.845H353.619V241.763H311.001V226.835Z" fill="#EFC1FF"/>
<path d="M460.393 150.807V137.417H387.311V252.844H460.393V239.301H402.851V198.67H436.237V205.442H452.084V192.36H440.084V185.589H402.851V150.807H460.393Z" fill="#EFC1FF"/>
<path d="M548.196 137.417V199.132H545.735V190.668H539.273V181.433H531.734V172.969H523.887V163.581H516.502V155.116H510.04V145.882H502.501V137.417H477.269V252.844H492.808V154.962H495.578V163.427H502.039V172.507H509.425V181.126H517.271V190.514H524.81V198.978H531.272V208.059H538.657V216.677H548.196V252.844H563.736V137.417H548.196Z" fill="#EFC1FF"/>
<path d="M655.988 166.351H673.22V146.344H659.065V136.032H599.523V149.114H655.988V166.351ZM659.988 222.525C655.065 236.069 644.603 242.071 631.679 242.071C610.447 242.071 596.138 222.679 596.138 193.592V161.734H580.599V193.746C580.599 230.528 601.215 255.153 631.833 255.153C651.526 255.153 666.604 245.611 674.604 226.835L659.988 222.525Z" fill="#EFC1FF"/>
<path d="M764.672 150.807V137.417H691.591V252.844H764.672V239.301H707.13V198.67H740.517V205.442H756.364V192.36H744.364V185.589H707.13V150.807H764.672Z" fill="#EFC1FF"/>
</g>
<defs>
<clipPath id="clip0">
<path d="M0 0H946V255H0V0Z" fill="white"/>
</clipPath>
</defs>
</svg>
