<svg width="145" height="23" viewBox="0 0 145 23" fill="none" xmlns="http://www.w3.org/2000/svg">
<g clip-path="url(#clip0)">
<path d="M145 4.62744H1.02295V5.44806H145V4.62744Z" fill="#151515"/>
<path d="M24.8941 6.26855H1.02295V7.08917H24.8941V6.26855Z" fill="#151515"/>
<path d="M25.7124 6.26855H38.3755C42.4449 6.26855 44.4683 8.86717 44.4683 11.8761C44.4683 15.4549 41.5355 17.666 38.3755 17.666H29.8046V22.6808H25.7124V6.26855ZM29.8046 9.96132V14.1556H37.7844C39.785 14.1556 40.2397 13.0158 40.2397 11.9673C40.2397 11.1011 39.785 9.96132 37.7844 9.96132H29.8046Z" fill="#151515"/>
<path d="M53.3349 19.5352H47.333L46.219 22.6808H41.854L48.4242 6.26855H52.6301L58.7911 22.6808H54.3579L53.3349 19.5352ZM48.5152 16.1843H52.2664L50.5158 10.7136L48.5152 16.1843Z" fill="#151515"/>
<path d="M59.4731 6.26855H67.2256C70.8858 6.26855 72.7045 8.86717 72.7045 11.8761C72.7045 14.2923 71.4769 16.0703 69.84 16.9821L72.7045 22.6808H68.1122L65.8388 17.666H63.5653V22.6808H59.4731V6.26855ZM63.5426 9.96132V14.1556H66.2025C67.7939 14.1556 68.4532 13.0158 68.4532 11.9673C68.4532 11.1011 67.7939 9.96132 66.2025 9.96132H63.5426Z" fill="#151515"/>
<path d="M73.6367 11.2608C73.6367 7.79594 76.3876 5.92676 79.9569 5.92676C82.0257 5.92676 84.2992 6.45104 85.5723 7.20327L84.7993 10.6909C83.4353 9.87027 81.3892 9.43716 79.7978 9.43716C78.5246 9.43716 77.6607 9.93865 77.6607 10.7821C77.6607 13.4491 86.0497 11.9446 86.0497 17.4609C86.0497 20.4015 83.9582 22.9773 79.6159 22.9773C77.7517 22.9773 75.6373 22.7266 73.955 21.9287L74.1141 18.1676C75.8192 18.9882 77.6835 19.4669 79.7296 19.4669C81.5256 19.4669 81.9803 18.8286 81.9803 18.0764C82.003 15.6374 73.6367 17.0734 73.6367 11.2608Z" fill="#151515"/>
<path d="M96.1435 5.94971C101.759 5.94971 105.828 8.86745 105.828 14.4066C105.828 20.1737 101.441 23.0231 96.1435 23.0231C90.7782 23.0231 86.4132 20.1281 86.4132 14.4294C86.3904 9.02701 90.3917 5.94971 96.1435 5.94971ZM96.098 19.5582C99.3036 19.5582 101.623 17.917 101.623 14.3154C101.623 11.033 99.3036 9.39173 96.1208 9.39173C92.938 9.39173 90.619 10.9874 90.619 14.4294C90.619 17.8942 92.9152 19.5582 96.098 19.5582Z" fill="#151515"/>
<path d="M111.83 11.1694H110.807V22.6808H106.715V6.26855H112.467L123.288 16.6174H124.311V6.26855H128.403V22.6808H123.447L111.83 11.1694Z" fill="#151515"/>
<path d="M129.904 11.2608C129.904 7.79594 133.178 5.92676 137.543 5.92676C140.317 5.92676 143.204 6.45104 144.5 7.20327L143.727 10.6909C142.363 9.87027 139.589 9.43716 137.407 9.43716C135.065 9.43716 133.951 9.93865 133.951 10.7821C133.951 13.6086 145 11.4203 145 17.4609C145 20.4015 142.499 22.9773 137.225 22.9773C134.86 22.9773 131.928 22.7266 130.223 21.9287L130.382 18.1676C132.087 18.9882 134.565 19.4669 137.338 19.4669C140.021 19.4669 140.908 18.8286 140.908 18.0764C140.93 15.455 129.904 17.5749 129.904 11.2608Z" fill="#151515"/>
<path d="M2.1143 0.911769V3.82951H1.15945V0.911769H0V0.0683594H3.27375V0.911769H2.1143Z" fill="#151515"/>
<path d="M6.95676 2.39343H4.50145V3.82951H3.56934V0.0683594H4.50145V1.50443H6.95676V0.0683594H7.88887V3.82951H6.95676V2.39343Z" fill="#151515"/>
<path d="M8.3208 3.82951V0.0683594H10.9807V0.911769H9.25291V1.55002H10.6624V2.34784H9.25291V2.9861H10.9807V3.82951H8.3208Z" fill="#151515"/>
<path d="M13.5041 1.43605H13.3677V3.82951H12.4355V0.0683594H13.5268L15.7093 2.41623H15.8457V0.0683594H16.7778V3.82951H15.7093L13.5041 1.43605Z" fill="#151515"/>
<path d="M17.21 3.82951V0.0683594H19.8699V0.911769H18.1421V1.55002H19.5516V2.34784H18.1421V2.9861H19.8699V3.82951H17.21Z" fill="#151515"/>
<path d="M19.9609 0.0683594H21.0067L21.8252 3.05448H22.0525L22.8027 0.0683594H24.5533L25.3945 3.05448H25.6218L26.3266 0.0683594H27.3951L26.3493 3.82951H24.6897L23.8258 0.843384H23.553L22.7573 3.82951H21.0977L19.9609 0.0683594Z" fill="#151515"/>
<path d="M28.4409 1.23092C28.4409 0.433102 29.0775 0 29.8959 0C30.3733 0 30.8962 0.113974 31.1918 0.296333L31.0099 1.09415C30.6916 0.911794 30.2369 0.79782 29.8732 0.79782C29.5776 0.79782 29.3958 0.911794 29.3958 1.11695C29.3958 1.73241 31.3054 1.39049 31.3054 2.6442C31.3054 3.30525 30.828 3.89792 29.8277 3.89792C29.3958 3.89792 28.9183 3.85233 28.5319 3.64718L28.5773 2.78097C28.9638 2.96333 29.3958 3.0773 29.8732 3.0773C30.2824 3.0773 30.3961 2.94054 30.3961 2.75818C30.3506 2.2111 28.4409 2.55302 28.4409 1.23092Z" fill="#151515"/>
<path d="M34.3971 3.7841C34.1015 3.89807 33.8515 3.92087 33.4195 3.92087C32.2601 3.92087 31.4644 3.00907 31.4644 1.96051C31.4644 0.889154 32.2828 0.0229492 33.5104 0.0229492C33.8287 0.0229492 34.1697 0.0229492 34.4653 0.136923L34.3744 0.980333C34.0561 0.866359 33.806 0.866359 33.5332 0.866359C32.8512 0.866359 32.4419 1.27667 32.4419 1.96051C32.4419 2.66715 32.8966 3.05466 33.5559 3.05466C33.9879 3.05466 34.1015 3.00907 34.3971 2.91789V3.7841Z" fill="#151515"/>
<path d="M38.2165 2.39343H35.7612V3.82951H34.8291V0.0683594H35.7612V1.50443H38.2165V0.0683594H39.1486V3.82951H38.2165V2.39343Z" fill="#151515"/>
<path d="M41.6267 0C42.9225 0 43.8319 0.661051 43.8319 1.93756C43.8319 3.25966 42.8316 3.92071 41.6039 3.92071C40.3763 3.92071 39.376 3.25966 39.376 1.96036C39.376 0.70664 40.3081 0 41.6267 0ZM41.6039 3.12289C42.3314 3.12289 42.8771 2.75818 42.8771 1.91477C42.8771 1.16254 42.3542 0.79782 41.6267 0.79782C40.8992 0.79782 40.3763 1.16254 40.3763 1.96036C40.3536 2.73538 40.8764 3.12289 41.6039 3.12289Z" fill="#151515"/>
<path d="M46.2419 0C47.5378 0 48.4472 0.661051 48.4472 1.93756C48.4472 3.25966 47.4468 3.92071 46.2192 3.92071C44.9915 3.92071 43.9912 3.25966 43.9912 1.96036C43.9912 0.70664 44.9006 0 46.2419 0ZM46.2192 3.12289C46.9467 3.12289 47.4923 2.75818 47.4923 1.91477C47.4923 1.16254 46.9694 0.79782 46.2419 0.79782C45.5144 0.79782 44.9915 1.16254 44.9915 1.96036C44.9688 2.73538 45.4917 3.12289 46.2192 3.12289Z" fill="#151515"/>
<path d="M48.6973 0.0683594H49.6294V2.94051H52.5394V3.82951H48.6973V0.0683594Z" fill="#151515"/>
</g>
<defs>
<clipPath id="clip0">
<rect width="145" height="23" fill="white"/>
</clipPath>
</defs>
</svg>
